# xmcd CD database file
#
# Track frame offsets:
#	150
#	4370
#	22288
#	51353
#	63138
#	81820
#	115191
#	141714
#	167836
#	195263
#	207770
#	228110
#
# Disc length: 3645 seconds
#
# Revision: 1
# Processed by: cddbd v1.5.2PL0 Copyright (c) Steve Scherf et al.
# Submitted via: CDex 1.51
#
DISCID=a30e3b0c
DTITLE=Diana Cooper - Meditationen für ein neues Zeitalter
DYEAR=1900
DGENRE=New Age
TTITLE0=Chakras aktivieren
TTITLE1=Chakras aktivieren
TTITLE2=Chakras aktivieren
TTITLE3=Chakras aktivieren
TTITLE4=Chakras aktivieren
TTITLE5=Chakras aktivieren
TTITLE6=Chakras aktivieren
TTITLE7=Chakras aktivieren
TTITLE8=Chakras aktivieren
TTITLE9=Chakras aktivieren
TTITLE10=Chakras aktivieren
TTITLE11=Chakras aktivieren
EXTD=
EXTT0=
EXTT1=
EXTT2=
EXTT3=
EXTT4=
EXTT5=
EXTT6=
EXTT7=
EXTT8=
EXTT9=
EXTT10=
EXTT11=
PLAYORDER=
